ffmpeg version 3.4.8-0ubuntu0.2 Copyright (c) 2000-2020 the FFmpeg developers
  built with gcc 7 (Ubuntu 7.5.0-3ubuntu1~18.04)
  configuration: --prefix=/usr --extra-version=0ubuntu0.2 --toolchain=hardened --libdir=/usr/lib/x86_64-linux-gnu --incdir=/usr/include/x86_64-linux-gnu --enable-gpl --disable-stripping --enable-avresample --enable-avisynth --enable-gnutls --enable-ladspa --enable-libass --enable-libbluray --enable-libbs2b --enable-libcaca --enable-libcdio --enable-libflite --enable-libfontconfig --enable-libfreetype --enable-libfribidi --enable-libgme --enable-libgsm --enable-libmp3lame --enable-libmysofa --enable-libopenjpeg --enable-libopenmpt --enable-libopus --enable-libpulse --enable-librubberband --enable-librsvg --enable-libshine --enable-libsnappy --enable-libsoxr --enable-libspeex --enable-libssh --enable-libtheora --enable-libtwolame --enable-libvorbis --enable-libvpx --enable-libwavpack --enable-libwebp --enable-libx265 --enable-libxml2 --enable-libxvid --enable-libzmq --enable-libzvbi --enable-omx --enable-openal --enable-opengl --enable-sdl2 --enable-libdc1394 --enable-libdrm --enable-libiec61883 --enable-chromaprint --enable-frei0r --enable-libopencv --enable-libx264 --enable-shared
  libavutil      55. 78.100 / 55. 78.100
  libavcodec     57.107.100 / 57.107.100
  libavformat    57. 83.100 / 57. 83.100
  libavdevice    57. 10.100 / 57. 10.100
  libavfilter     6.107.100 /  6.107.100
  libavresample   3.  7.  0 /  3.  7.  0
  libswscale      4.  8.100 /  4.  8.100
  libswresample   2.  9.100 /  2.  9.100
  libpostproc    54.  7.100 / 54.  7.100
[rawvideo @ 0x5654c6b42a20] Estimating duration from bitrate, this may be inaccurate
Input #0, rawvideo, from '../../SVC-Encoder-20220109T061506Z-001/SVC-Encoder/Dataset/RollerCoaster/ERP_8x8/tile_yuv/Tile_17_480x240.yuv':
  Duration: 00:00:10.00, start: 0.000000, bitrate: 41472 kb/s
    Stream #0:0: Video: rawvideo (I420 / 0x30323449), yuv420p, 480x240, 41472 kb/s, 30 tbr, 30 tbn, 30 tbc
Stream mapping:
  Stream #0:0 -> #0:0 (rawvideo (native) -> h264 (libx264))
Press [q] to stop, [?] for help
[libx264 @ 0x5654c6b4fc60] using cpu capabilities: MMX2 SSE2Fast LZCNT SSSE3 SSE4.2 AVX
[libx264 @ 0x5654c6b4fc60] profile High, level 2.1
Output #0, rawvideo, to 'RollerCoaster_Tile_17_480x240_x264_QP_28.h264':
  Metadata:
    encoder         : Lavf57.83.100
    Stream #0:0: Video: h264 (libx264), yuv420p, 480x240, q=-1--1, 30 fps, 30 tbn, 30 tbc
    Metadata:
      encoder         : Lavc57.107.100 libx264
    Side data:
      cpb: bitrate max/min/avg: 0/0/0 buffer size: 0 vbv_delay: -1
frame=  300 fps=0.0 q=34.0 LPSNR=Y:inf U:inf V:inf *:inf size=      21kB time=00:00:09.93 bitrate=  16.9kbits/s speed=26.9x    
video:21kB audio:0kB subtitle:0kB other streams:0kB global headers:0kB muxing overhead: 0.000000%
[libx264 @ 0x5654c6b4fc60] frame I:2     Avg QP:26.33  size:  1509  PSNR Mean Y:49.49 U:51.44 V:53.80 Avg:50.27 Global:50.22
[libx264 @ 0x5654c6b4fc60] frame P:76    Avg QP:28.13  size:   129  PSNR Mean Y:48.19 U:50.86 V:53.16 Avg:49.10 Global:49.09
[libx264 @ 0x5654c6b4fc60] frame B:222   Avg QP:33.55  size:    37  PSNR Mean Y:48.00 U:50.84 V:53.15 Avg:48.94 Global:48.91
[libx264 @ 0x5654c6b4fc60] consecutive B-frames:  1.0%  0.7%  1.0% 97.3%
[libx264 @ 0x5654c6b4fc60] mb I  I16..4: 56.8% 40.2%  3.0%
[libx264 @ 0x5654c6b4fc60] mb P  I16..4:  1.0%  0.7%  0.0%  P16..4:  6.7%  1.1%  0.1%  0.0%  0.0%    skip:90.5%
[libx264 @ 0x5654c6b4fc60] mb B  I16..4:  0.0%  0.0%  0.0%  B16..8:  4.0%  0.1%  0.0%  direct: 0.0%  skip:95.9%  L0:40.0% L1:59.8% BI: 0.2%
[libx264 @ 0x5654c6b4fc60] 8x8 transform intra:40.1% inter:76.7%
[libx264 @ 0x5654c6b4fc60] coded y,uvDC,uvAC intra: 6.2% 14.9% 0.0% inter: 0.2% 0.2% 0.0%
[libx264 @ 0x5654c6b4fc60] i16 v,h,dc,p: 31% 41% 15% 13%
[libx264 @ 0x5654c6b4fc60] i8 v,h,dc,ddl,ddr,vr,hd,vl,hu:  4% 17% 72%  1%  1%  1%  3%  0%  1%
[libx264 @ 0x5654c6b4fc60] i4 v,h,dc,ddl,ddr,vr,hd,vl,hu:  6% 29% 29%  0% 11%  2% 22%  0%  1%
[libx264 @ 0x5654c6b4fc60] i8c dc,h,v,p: 75% 16%  8%  0%
[libx264 @ 0x5654c6b4fc60] Weighted P-Frames: Y:0.0% UV:0.0%
[libx264 @ 0x5654c6b4fc60] ref P L0: 57.9% 10.8% 24.0%  7.2%
[libx264 @ 0x5654c6b4fc60] ref B L0: 66.7% 26.5%  6.8%
[libx264 @ 0x5654c6b4fc60] ref B L1: 70.1% 29.9%
[libx264 @ 0x5654c6b4fc60] PSNR Mean Y:48.057 U:50.849 V:53.161 Avg:48.992 Global:48.965 kb/s:16.83
